<svg version="1.1" id="Layer_1" xmlns="http://www.w3.org/2000/svg" xmlns:xlink="http://www.w3.org/1999/xlink" x="0px" y="0px"
	 width="100%" viewBox="0 0 63 60" enable-background="new 0 0 63 60" xml:space="preserve">
<path fill="#FEFEFD" opacity="1.000000" stroke="none" 
	d="
M3.000000,1.000000 
	C23.296511,1.000000 43.593021,1.000000 63.944763,1.000000 
	C63.944763,20.926836 63.944763,40.853851 63.944763,60.890434 
	C43.111584,60.890434 22.222401,60.890434 1.000000,60.890434 
	C1.000000,41.980404 1.000000,22.958858 1.323933,3.432809 
	C2.098577,2.285535 2.549288,1.642768 3.000000,1.000000 
M7.657078,5.879849 
	C7.216494,5.806384 6.775909,5.732919 6.335326,5.659454 
	C6.446935,6.065108 6.558545,6.470763 6.956189,7.503159 
	C8.304968,9.006001 9.653746,10.508843 10.996660,12.617939 
	C10.995244,13.020863 10.993827,13.423787 10.257134,13.903905 
	C9.493279,14.289968 8.729424,14.676032 7.522979,15.323284 
	C5.020092,13.169037 3.706043,14.031489 3.271802,15.823896 
	C5.266934,17.596189 6.612293,18.791285 7.965356,20.924170 
	C7.993157,25.250566 7.886705,29.582809 8.074880,33.902222 
	C8.565430,45.162392 17.519993,55.499611 27.974621,57.044010 
	C40.714565,58.926014 52.081093,52.916203 55.916988,41.471172 
	C59.746536,30.045080 57.145222,18.208496 57.961487,6.073393 
	C40.705906,6.073393 24.418724,6.073393 7.657078,5.879849 
z"/>
<path fill="#F9F9FA" opacity="1.000000" stroke="none" 
	d="
M2.500000,1.000000 
	C2.549288,1.642768 2.098577,2.285535 1.323932,2.964151 
	C1.333333,2.333333 1.666667,1.666667 2.500000,1.000000 
z"/>
<path fill="#C59E6E" opacity="1.000000" stroke="none" 
	d="
M11.002524,12.011685 
	C9.653746,10.508843 8.304968,9.006001 7.084007,7.104850 
	C7.518396,6.495492 7.824968,6.284442 8.131540,6.073393 
	C24.418724,6.073393 40.705906,6.073393 57.961487,6.073393 
	C57.145222,18.208496 59.746536,30.045080 55.916988,41.471172 
	C52.081093,52.916203 40.714565,58.926014 27.974621,57.044010 
	C17.519993,55.499611 8.565430,45.162392 8.074880,33.902222 
	C7.886705,29.582809 7.993157,25.250566 8.246011,20.326981 
	C8.339633,18.173893 8.152600,16.617994 7.965568,15.062096 
	C8.729424,14.676032 9.493279,14.289968 10.840731,13.972410 
	C11.424328,14.040915 11.876794,14.203644 11.856993,14.655925 
	C11.872820,21.436350 11.723115,27.772213 11.986198,34.090885 
	C12.413231,44.347237 19.753847,51.862904 30.662355,53.572411 
	C39.530685,54.962189 49.128658,49.196922 52.222656,40.208256 
	C55.610100,30.367075 53.470772,20.253603 53.857437,10.039691 
	C40.148891,10.039691 27.163712,10.024990 14.178889,10.086220 
	C13.575121,10.089068 12.974552,10.770779 12.205458,11.368832 
	C11.693123,11.738121 11.347823,11.874903 11.002524,12.011685 
z"/>
<path fill="#F9F9FA" opacity="1.000000" stroke="none" 
	d="
M7.744273,15.192690 
	C8.152600,16.617994 8.339633,18.173893 8.242159,19.858086 
	C6.612293,18.791285 5.266934,17.596189 3.271802,15.823896 
	C3.706043,14.031489 5.020092,13.169037 7.744273,15.192690 
z"/>
<path fill="#F9F9FA" opacity="1.000000" stroke="none" 
	d="
M11.876794,14.203644 
	C11.876794,14.203644 11.424328,14.040915 11.208369,13.933813 
	C10.993827,13.423787 10.995244,13.020863 10.999592,12.314812 
	C11.347823,11.874903 11.693123,11.738121 12.377850,11.580307 
	C12.437117,12.440732 12.156955,13.322187 11.876794,14.203644 
z"/>
<path fill="#F9F9FA" opacity="1.000000" stroke="none" 
	d="
M7.894309,5.976621 
	C7.824968,6.284442 7.518396,6.495492 6.940989,6.791480 
	C6.558545,6.470763 6.446935,6.065108 6.335325,5.659454 
	C6.775909,5.732919 7.216494,5.806384 7.894309,5.976621 
z"/>
<path fill="#FEFEFE" opacity="1.000000" stroke="none" 
	d="
M11.856993,14.655925 
	C12.156955,13.322187 12.437117,12.440732 12.544886,11.347799 
	C12.974552,10.770779 13.575121,10.089068 14.178889,10.086220 
	C27.163712,10.024990 40.148891,10.039691 53.857437,10.039691 
	C53.470772,20.253603 55.610100,30.367075 52.222656,40.208256 
	C49.128658,49.196922 39.530685,54.962189 30.662355,53.572411 
	C19.753847,51.862904 12.413231,44.347237 11.986198,34.090885 
	C11.723115,27.772213 11.872820,21.436350 11.856993,14.655925 
M33.399971,27.486298 
	C34.972107,31.684164 36.692543,35.834167 38.067795,40.095573 
	C39.102230,43.300919 40.820850,43.688000 43.775093,42.148651 
	C41.114628,35.019218 38.503529,28.022078 35.790329,20.289978 
	C33.264545,18.176268 30.872023,18.015026 29.576477,21.414461 
	C26.932186,28.352932 24.557911,35.394306 22.073135,42.391243 
	C25.462215,43.766819 26.962202,42.585243 27.971813,39.645214 
	C29.463835,35.300388 31.345991,31.089537 33.399971,27.486298 
z"/>
<path fill="#C59E6D" opacity="1.000000" stroke="none" 
	d="
M33.062023,26.821638 
	C31.345991,31.089537 29.463835,35.300388 27.971813,39.645214 
	C26.962202,42.585243 25.462215,43.766819 22.073135,42.391243 
	C24.557911,35.394306 26.932186,28.352932 29.576477,21.414461 
	C30.872023,18.015026 33.264545,18.176268 35.492950,20.705788 
	C34.484394,23.021612 33.773209,24.921625 33.062023,26.821638 
z"/>
<path fill="#AD8452" opacity="1.000000" stroke="none" 
	d="
M33.230995,27.153969 
	C33.773209,24.921625 34.484394,23.021612 35.544003,21.073269 
	C38.503529,28.022078 41.114628,35.019218 43.775093,42.148651 
	C40.820850,43.688000 39.102230,43.300919 38.067795,40.095573 
	C36.692543,35.834167 34.972107,31.684164 33.230995,27.153969 
z"/>
</svg>